<svg width="25" height="24" viewBox="0 0 25 24" fill="none" xmlns="http://www.w3.org/2000/svg">
<path d="M17.0156 18.43H13.0156L8.56561 21.39C7.90561 21.83 7.01562 21.36 7.01562 20.56V18.43C4.01562 18.43 2.01562 16.43 2.01562 13.43V7.42993C2.01562 4.42993 4.01562 2.42993 7.01562 2.42993H17.0156C20.0156 2.42993 22.0156 4.42993 22.0156 7.42993V13.43C22.0156 16.43 20.0156 18.43 17.0156 18.43Z" stroke="#171717" stroke-width="1.5" stroke-miterlimit="10" stroke-linecap="round" stroke-linejoin="round"/>
<path d="M12.0156 11.36V11.15C12.0156 10.47 12.4357 10.11 12.8557 9.82001C13.2657 9.54001 13.6756 9.18002 13.6756 8.52002C13.6756 7.60002 12.9356 6.85999 12.0156 6.85999C11.0956 6.85999 10.3557 7.60002 10.3557 8.52002" stroke="#171717" stroke-width="1.5" stroke-linecap="round" stroke-linejoin="round"/>
<path d="M12.0111 13.75H12.0201" stroke="#171717" stroke-width="1.5" stroke-linecap="round" stroke-linejoin="round"/>
</svg>
