<svg width="25" height="24" viewBox="0 0 25 24" fill="none" xmlns="http://www.w3.org/2000/svg">
<path d="M12.0156 6.43994V9.76994" stroke="#171717" stroke-width="1.5" stroke-miterlimit="10" stroke-linecap="round"/>
<path d="M12.0355 2C8.35552 2 5.37552 4.98 5.37552 8.66V10.76C5.37552 11.44 5.09552 12.46 4.74552 13.04L3.47552 15.16C2.69552 16.47 3.23552 17.93 4.67552 18.41C9.45552 20 14.6255 20 19.4055 18.41C20.7555 17.96 21.3355 16.38 20.6055 15.16L19.3355 13.04C18.9855 12.46 18.7055 11.43 18.7055 10.76V8.66C18.6955 5 15.6955 2 12.0355 2Z" stroke="#171717" stroke-width="1.5" stroke-miterlimit="10" stroke-linecap="round"/>
<path d="M15.3455 18.8199C15.3455 20.6499 13.8455 22.1499 12.0155 22.1499C11.1055 22.1499 10.2655 21.7699 9.66555 21.1699C9.06555 20.5699 8.68555 19.7299 8.68555 18.8199" stroke="#171717" stroke-width="1.5" stroke-miterlimit="10"/>
</svg>
